<?xml version="1.0" standalone="no"?>
<!DOCTYPE svg PUBLIC "-//W3C//DTD SVG 20010904//EN"
 "http://www.w3.org/TR/2001/REC-SVG-20010904/DTD/svg10.dtd">
<svg version="1.0" xmlns="http://www.w3.org/2000/svg"
 width="111.000000pt" height="183.000000pt" viewBox="0 0 111.000000 183.000000"
 preserveAspectRatio="xMidYMid meet">

<g transform="translate(0.000000,183.000000) scale(0.100000,-0.100000)"
fill="#000000" stroke="none">
<path d="M371 1818 c-14 -7 -28 -27 -33 -45 l-9 -33 -164 0 -165 0 0 -870 0
-870 155 0 155 0 0 258 c0 149 4 251 9 242 5 -8 32 -107 61 -220 28 -113 56
-222 61 -243 l10 -38 66 3 67 3 65 260 66 260 3 -263 2 -262 60 0 60 0 0 340
0 340 -41 0 -41 0 25 30 c14 16 27 33 29 38 1 4 63 41 136 81 96 52 136 80
147 101 22 43 22 547 0 594 -16 34 -19 36 -110 86 -33 18 -85 46 -115 63 -30
16 -74 49 -98 73 -68 70 -89 77 -242 81 -98 3 -142 0 -159 -9z m294 -123 c53
-53 15 -135 -63 -135 -96 0 -129 104 -47 148 35 20 84 14 110 -13z m-335 -466
l0 -340 -47 3 -48 3 -3 325 c-1 179 0 330 3 337 2 8 23 13 50 13 l45 0 0 -341z
m630 1 l0 -226 -70 -38 -70 -37 0 299 0 299 70 -36 70 -36 0 -225z m-295 -355
c73 -72 -20 -169 -114 -120 -32 16 -41 33 -41 75 0 65 106 95 155 45z m-332
-175 c5 -18 0 -20 -49 -20 -47 0 -54 2 -54 20 0 17 7 20 49 20 40 0 50 -3 54
-20z m287 -82 c-1 -17 -97 -379 -103 -384 -3 -4 -75 253 -103 369 l-6 27 106
0 c78 0 106 -3 106 -12z"/>
</g>
</svg>
